<?xml version="1.0" standalone="no"?>
<!DOCTYPE svg PUBLIC "-//W3C//DTD SVG 20010904//EN"
 "http://www.w3.org/TR/2001/REC-SVG-20010904/DTD/svg10.dtd">
<svg version="1.0" xmlns="http://www.w3.org/2000/svg"
 width="6144.000000pt" height="4096.000000pt" viewBox="0 0 6144.000000 4096.000000"
 preserveAspectRatio="xMidYMid meet">

<g transform="translate(0.000000,4096.000000) scale(0.100000,-0.100000)"
fill="#000000" stroke="none">
<path d="M32343 34077 c-64 -53 -166 -117 -185 -117 -8 0 -23 -9 -34 -21 -10
-11 -37 -29 -59 -40 -22 -10 -62 -32 -90 -49 -27 -16 -63 -37 -80 -45 -16 -9
-55 -31 -85 -50 -30 -19 -60 -34 -66 -35 -6 0 -19 -9 -29 -20 -10 -11 -26 -20
-35 -20 -10 0 -23 -7 -30 -15 -6 -8 -22 -17 -33 -21 -12 -4 -36 -17 -53 -30
-17 -13 -34 -24 -38 -24 -4 0 -32 -16 -62 -35 -30 -19 -60 -35 -66 -35 -6 0
-21 -9 -32 -19 -12 -11 -44 -31 -72 -45 -28 -14 -57 -33 -64 -41 -7 -8 -20
-15 -30 -15 -9 0 -25 -9 -35 -20 -10 -11 -27 -20 -38 -20 -12 0 -31 -9 -43
-21 -12 -11 -29 -21 -37 -23 -8 -1 -21 -7 -28 -13 -12 -8 -95 -57 -161 -93
-10 -6 -26 -15 -35 -20 -10 -6 -29 -16 -43 -23 -14 -7 -51 -29 -82 -50 -31
-20 -61 -37 -65 -37 -4 0 -19 -9 -33 -20 -14 -11 -31 -20 -39 -20 -8 0 -24 -9
-35 -19 -12 -11 -57 -38 -101 -61 -44 -23 -91 -50 -105 -59 -14 -10 -32 -21
-40 -24 -8 -4 -55 -32 -104 -62 -49 -30 -94 -55 -99 -55 -6 0 -18 -7 -27 -15
-9 -8 -36 -25 -60 -38 -25 -13 -72 -39 -105 -57 -33 -18 -69 -38 -80 -44 -11
-6 -41 -26 -67 -44 -26 -17 -50 -32 -54 -32 -4 0 -22 -11 -40 -25 -18 -14 -39
-25 -47 -25 -8 0 -22 -9 -32 -20 -10 -11 -25 -20 -33 -20 -9 0 -23 -6 -31 -14
-9 -8 -43 -29 -76 -47 -33 -17 -67 -38 -76 -45 -8 -8 -22 -14 -30 -14 -8 0
-25 -9 -39 -20 -14 -11 -31 -20 -39 -20 -8 0 -24 -8 -35 -19 -12 -10 -43 -31
-71 -46 -27 -15 -57 -33 -66 -41 -8 -8 -22 -14 -31 -14 -8 0 -23 -9 -33 -20
-10 -11 -27 -22 -39 -26 -11 -4 -42 -22 -69 -40 -26 -19 -53 -34 -60 -34 -8 0
-22 -9 -32 -20 -10 -11 -28 -20 -40 -20 -13 0 -29 -7 -36 -17 -8 -9 -27 -22
-44 -30 -16 -7 -48 -24 -70 -38 -22 -14 -47 -28 -55 -32 -8 -3 -26 -15 -39
-25 -13 -10 -31 -18 -39 -18 -9 0 -25 -9 -36 -19 -12 -11 -44 -31 -72 -45 -28
-14 -57 -33 -64 -41 -7 -8 -21 -15 -31 -15 -10 0 -20 -4 -23 -9 -3 -5 -47 -32
-98 -61 -51 -29 -104 -61 -117 -71 -13 -11 -31 -19 -41 -19 -9 0 -25 -9 -35
-20 -10 -11 -26 -20 -35 -20 -10 0 -23 -7 -30 -15 -7 -8 -29 -19 -50 -25 -20
-5 -49 -21 -64 -35 l-26 -24 2 -842 c3 -763 5 -843 19 -852 12 -8 24 -5 47 11
16 12 39 22 49 22 11 0 28 9 38 20 10 11 28 20 40 20 12 0 30 9 40 20 10 11
27 20 37 20 11 0 31 9 45 20 14 11 32 20 40 20 8 0 26 9 40 20 14 11 33 20 42
20 9 0 27 9 41 20 14 11 32 20 40 20 8 0 26 9 40 20 14 11 32 20 41 20 9 0 24
9 34 20 10 11 28 20 40 20 12 0 30 9 40 20 10 11 28 20 40 20 12 0 30 9 40 20
10 11 24 20 31 20 7 0 30 12 51 26 47 32 360 184 378 184 8 0 16 -4 19 -9 4
-5 6 -636 6 -1401 0 -1299 1 -1391 17 -1388 10 2 21 18 26 38 5 19 13 39 18
44 5 6 9 18 9 28 0 11 11 30 25 44 14 14 25 30 26 37 0 7 16 32 34 57 19 25
41 59 50 75 8 17 24 44 35 60 10 17 26 44 35 62 9 17 23 34 31 37 8 3 14 14
14 24 0 10 4 22 9 27 5 6 21 33 36 60 15 28 38 61 51 76 13 14 24 32 24 40 0
8 4 19 9 24 5 6 24 37 42 70 17 33 38 67 45 76 8 8 14 19 14 23 0 5 13 25 28
45 15 20 38 57 51 83 13 26 30 49 37 52 8 3 14 14 14 24 0 10 9 27 20 37 11
10 20 26 20 36 0 10 18 44 40 75 22 32 40 63 40 69 0 7 9 20 20 30 11 10 20
25 20 33 0 9 6 23 14 31 8 9 29 43 47 76 17 33 38 67 45 76 8 8 14 19 14 24 0
5 6 16 14 24 8 9 26 39 41 66 15 28 36 59 46 71 11 11 19 29 19 41 0 11 9 28
20 38 11 10 30 38 42 62 12 24 30 51 40 60 10 9 18 22 18 29 0 15 74 138 102
170 10 11 18 26 18 32 0 7 15 33 34 59 18 27 36 58 40 69 4 12 15 29 26 39 11
10 20 24 20 32 0 8 11 29 24 46 13 18 36 56 50 84 14 29 38 60 52 70 23 15 29
15 51 2 14 -8 35 -32 47 -54 12 -23 31 -54 44 -69 12 -16 22 -33 22 -38 0 -5
5 -14 10 -21 23 -26 140 -209 140 -219 0 -5 18 -31 40 -57 22 -26 40 -54 40
-61 0 -8 11 -25 24 -39 13 -15 32 -42 43 -61 10 -20 35 -56 56 -81 20 -26 37
-53 37 -61 0 -8 9 -23 20 -33 11 -10 22 -27 26 -39 4 -11 22 -42 40 -69 19
-26 34 -52 34 -58 0 -6 20 -34 45 -61 25 -28 45 -56 45 -62 0 -7 16 -31 35
-53 19 -23 35 -47 35 -54 0 -7 8 -22 19 -33 10 -12 29 -41 42 -66 13 -25 34
-58 46 -73 13 -16 23 -34 23 -41 0 -7 16 -31 35 -53 19 -23 35 -48 35 -56 0
-9 4 -18 9 -22 16 -9 71 -95 71 -109 0 -7 9 -21 20 -31 10 -9 29 -36 41 -59
11 -22 27 -48 35 -56 7 -9 25 -38 40 -65 14 -28 34 -59 45 -71 10 -11 19 -28
19 -37 0 -9 6 -20 13 -24 19 -13 67 -80 67 -96 0 -8 9 -22 20 -32 11 -10 32
-42 46 -71 14 -29 32 -58 40 -65 8 -6 14 -15 14 -20 0 -10 58 -97 71 -104 5
-4 9 -14 9 -24 0 -10 10 -27 23 -39 13 -12 33 -41 45 -65 12 -23 30 -50 42
-59 11 -10 20 -26 20 -37 0 -10 6 -21 13 -24 6 -3 23 -27 36 -53 30 -58 76
-108 92 -99 8 5 9 785 4 2994 -3 1642 -7 3023 -7 3069 -2 90 10 113 44 89 83
-59 406 -308 417 -321 7 -9 21 -16 30 -16 9 0 48 -27 86 -60 39 -33 74 -60 78
-60 5 0 41 -27 81 -60 40 -33 77 -60 81 -60 5 0 29 -17 54 -37 25 -21 72 -55
103 -76 31 -21 69 -50 83 -63 14 -13 28 -24 31 -24 7 0 62 -39 115 -82 26 -21
51 -38 56 -38 4 0 31 -20 59 -44 28 -25 71 -57 96 -73 88 -55 161 -105 197
-136 20 -18 52 -41 71 -51 19 -11 55 -38 80 -61 66 -61 99 -80 112 -67 7 7 13
84 16 200 l5 190 -34 42 c-18 23 -63 61 -99 85 -36 24 -81 60 -99 79 -19 20
-40 36 -45 36 -6 1 -38 23 -71 50 -33 28 -96 78 -140 112 -44 34 -105 83 -134
110 -30 26 -59 48 -64 48 -5 0 -48 35 -94 78 -47 42 -111 95 -143 117 -32 22
-78 59 -102 81 -24 23 -70 59 -102 81 -31 22 -78 60 -104 85 -26 24 -75 65
-108 91 -34 25 -88 69 -120 97 -33 27 -63 50 -67 50 -5 0 -48 34 -95 76 -48
42 -94 79 -102 82 -8 3 -46 33 -85 67 -128 113 -136 114 -212 52z"/>
<path d="M33892 31250 c0 -14 2 -19 5 -12 2 6 2 18 0 25 -3 6 -5 1 -5 -13z"/>
<path d="M33893 31075 c0 -38 2 -53 4 -32 2 20 2 52 0 70 -2 17 -4 1 -4 -38z"/>
<path d="M33892 30935 c0 -16 2 -22 5 -12 2 9 2 23 0 30 -3 6 -5 -1 -5 -18z"/>
<path d="M33892 30700 c0 -14 2 -19 5 -12 2 6 2 18 0 25 -3 6 -5 1 -5 -13z"/>
<path d="M33891 30374 c0 -11 3 -14 6 -6 3 7 2 16 -1 19 -3 4 -6 -2 -5 -13z"/>
<path d="M33892 30295 c0 -16 2 -22 5 -12 2 9 2 23 0 30 -3 6 -5 -1 -5 -18z"/>
<path d="M33893 30175 c0 -33 2 -45 4 -27 2 18 2 45 0 60 -2 15 -4 0 -4 -33z"/>
<path d="M33892 29980 c0 -14 2 -19 5 -12 2 6 2 18 0 25 -3 6 -5 1 -5 -13z"/>
<path d="M33893 29830 c0 -47 2 -66 4 -42 2 23 2 61 0 85 -2 23 -4 4 -4 -43z"/>
<path d="M33893 29565 c0 -33 2 -45 4 -27 2 18 2 45 0 60 -2 15 -4 0 -4 -33z"/>
<path d="M38690 29593 c-25 -33 -79 -115 -99 -152 -8 -14 -43 -60 -79 -101
-88 -102 -100 -117 -152 -180 -25 -30 -50 -60 -56 -66 -6 -7 -39 -47 -75 -90
-35 -43 -91 -107 -124 -143 -34 -36 -107 -122 -164 -191 -57 -69 -139 -163
-181 -210 -43 -47 -106 -118 -139 -158 -34 -40 -71 -83 -82 -95 -12 -12 -98
-110 -192 -217 -95 -107 -187 -211 -206 -230 -18 -19 -65 -73 -104 -120 -68
-81 -118 -137 -252 -280 -33 -36 -78 -87 -100 -115 -22 -27 -87 -104 -145
-171 -58 -66 -119 -137 -136 -157 -18 -21 -70 -79 -116 -130 -47 -51 -138
-153 -204 -227 -65 -74 -121 -137 -124 -140 -3 -3 -25 -30 -50 -60 -38 -47
-89 -106 -223 -254 -16 -17 -56 -62 -90 -101 -34 -38 -102 -114 -152 -169 -49
-54 -126 -142 -171 -195 -44 -53 -116 -134 -159 -181 -43 -47 -111 -126 -152
-177 -40 -50 -78 -95 -84 -98 -10 -7 -130 -154 -269 -331 -36 -45 -103 -130
-150 -189 -47 -58 -106 -134 -132 -168 -26 -34 -66 -84 -87 -112 -110 -139
-187 -239 -196 -255 -11 -18 -127 -171 -209 -273 -26 -34 -56 -73 -64 -87 -9
-14 -23 -31 -30 -39 -8 -8 -51 -61 -96 -118 -44 -57 -112 -144 -151 -193 -62
-78 -215 -262 -270 -325 -242 -275 -338 -377 -540 -579 -132 -133 -296 -291
-365 -351 -69 -60 -148 -131 -176 -158 -29 -27 -75 -66 -104 -88 -29 -22 -94
-73 -144 -113 -113 -91 -373 -286 -381 -286 -3 0 -29 -17 -58 -38 -29 -22 -56
-41 -62 -43 -5 -2 -76 -48 -157 -101 -80 -54 -166 -107 -190 -119 -24 -12 -50
-28 -58 -34 -8 -7 -40 -25 -70 -41 -30 -15 -62 -33 -70 -40 -15 -12 -173 -95
-460 -241 -91 -46 -169 -88 -174 -94 -6 -5 -17 -9 -27 -9 -9 0 -28 -9 -42 -20
-14 -11 -30 -20 -37 -20 -11 0 -67 -23 -145 -60 -94 -45 -192 -88 -215 -94
-14 -4 -44 -16 -67 -27 -40 -19 -84 -38 -178 -79 -22 -10 -65 -28 -95 -40 -30
-12 -72 -31 -93 -41 -22 -11 -43 -19 -49 -19 -5 0 -24 -6 -41 -14 -59 -26
-152 -64 -212 -86 -33 -12 -80 -30 -105 -40 -25 -10 -72 -28 -105 -40 -33 -12
-73 -27 -90 -35 -16 -7 -59 -25 -95 -40 -36 -15 -83 -35 -105 -46 -22 -10 -46
-19 -52 -19 -7 0 -32 -9 -55 -19 -24 -10 -68 -29 -98 -41 -30 -12 -73 -31 -96
-41 -23 -11 -46 -19 -52 -19 -6 0 -33 -10 -59 -21 -27 -12 -61 -27 -78 -34
-16 -7 -55 -24 -85 -38 -30 -14 -80 -35 -110 -47 -30 -12 -74 -31 -97 -41 -23
-11 -44 -19 -47 -19 -3 0 -45 -18 -93 -41 -154 -71 -167 -77 -218 -99 -27 -11
-70 -31 -95 -42 -53 -25 -123 -56 -165 -74 -52 -22 -126 -59 -230 -114 -55
-30 -134 -71 -175 -92 -41 -21 -124 -65 -185 -98 -60 -32 -124 -65 -141 -73
-17 -8 -49 -27 -73 -41 -48 -31 -88 -53 -181 -104 -107 -58 -134 -73 -150 -86
-8 -6 -26 -17 -39 -24 -13 -8 -39 -22 -58 -33 -35 -20 -154 -91 -201 -121 -15
-10 -43 -27 -62 -38 -40 -23 -44 -26 -160 -100 -47 -30 -89 -57 -95 -59 -8 -4
-190 -124 -430 -285 -81 -54 -252 -178 -295 -214 -19 -16 -46 -35 -60 -42 -25
-13 -93 -65 -140 -107 -14 -13 -28 -23 -32 -23 -3 0 -46 -34 -95 -76 -48 -42
-111 -92 -140 -110 -28 -19 -54 -38 -57 -43 -4 -5 -41 -35 -84 -67 -42 -32
-99 -77 -127 -100 -130 -111 -202 -167 -223 -175 -13 -5 -46 -28 -75 -51 -94
-78 -512 -512 -512 -532 0 -8 457 -12 1598 -14 1587 -3 1598 -3 1626 17 16 11
34 34 41 51 7 16 16 30 21 30 5 0 9 6 9 14 0 7 11 30 25 50 14 20 25 43 25 50
0 7 9 21 20 31 11 10 20 22 20 27 0 9 57 97 69 108 9 7 30 42 40 65 5 11 18
29 30 39 11 11 21 25 21 32 0 7 17 34 38 61 20 26 46 65 57 86 11 21 30 48 43
59 12 12 22 25 22 30 0 12 39 67 78 109 18 19 40 50 50 67 9 18 47 65 84 105
37 41 78 92 93 113 32 49 369 391 407 414 15 9 67 52 115 97 127 115 160 143
169 143 5 0 41 27 79 60 39 33 74 60 79 60 5 0 29 17 54 37 50 41 110 83 118
83 3 0 27 18 53 40 26 22 50 40 54 40 9 0 95 59 102 71 4 5 13 9 20 9 8 0 38
18 67 40 29 22 58 40 63 40 6 0 21 9 35 20 14 11 32 20 41 20 9 0 24 9 34 20
10 11 27 22 39 26 11 4 42 22 69 40 26 19 52 34 58 34 12 0 119 56 134 71 5 5
16 9 25 9 8 0 26 9 40 20 14 11 34 20 46 20 11 0 29 9 39 20 10 11 25 20 34
20 9 0 27 9 41 20 14 11 32 20 41 20 9 0 24 9 34 20 10 11 28 20 39 20 12 0
32 9 46 20 14 11 32 20 40 20 8 0 30 9 48 20 18 11 43 20 56 20 13 0 35 9 49
20 14 11 33 20 44 20 10 0 29 9 43 20 14 11 38 20 53 20 16 0 40 9 54 20 14
11 35 20 47 20 11 0 32 9 46 20 14 11 36 20 50 20 14 0 39 9 55 20 17 11 38
20 48 20 11 0 30 9 44 20 14 11 35 20 47 20 11 0 35 9 51 20 17 11 41 20 55
20 14 0 40 9 58 20 18 11 45 20 61 20 15 0 36 9 46 20 10 11 28 20 39 20 12 0
32 9 46 20 14 11 38 20 53 20 16 0 40 9 54 20 14 11 35 20 45 20 11 0 31 9 45
20 14 11 33 20 43 20 10 0 29 9 43 20 14 11 32 20 40 20 8 0 25 8 38 19 13 10
38 22 56 25 17 4 37 14 44 22 6 8 17 14 24 14 12 0 94 37 135 61 8 4 79 40
156 79 78 38 147 77 154 85 7 8 20 15 30 15 9 0 29 9 43 20 14 11 32 20 40 20
8 0 26 9 40 20 14 11 30 20 37 20 7 0 23 9 37 20 14 11 34 20 44 20 11 0 19 4
19 9 0 5 20 19 44 31 24 11 63 34 85 50 23 17 47 30 55 30 8 0 17 4 21 9 6 11
93 71 102 71 3 0 18 11 35 25 16 14 35 25 42 25 7 0 30 15 52 33 21 19 55 42
74 53 19 10 52 33 74 51 21 17 52 39 70 48 17 9 60 40 96 70 36 30 69 55 75
55 5 0 27 18 50 40 22 21 79 70 127 107 208 163 307 252 534 478 132 132 275
283 316 335 42 52 101 120 133 150 31 30 84 91 118 135 33 44 92 114 130 155
39 41 95 107 125 145 30 39 85 102 121 141 36 39 83 96 103 125 21 30 65 81
98 114 32 33 59 63 60 67 1 17 57 89 124 158 40 41 83 93 96 115 13 22 54 74
92 115 37 41 81 95 97 120 16 25 57 72 90 105 34 33 61 63 61 68 0 13 55 82
132 166 37 40 68 78 68 85 0 6 40 54 88 107 48 52 117 133 154 180 126 157
153 190 223 272 39 45 91 109 117 142 25 33 77 94 115 135 38 41 99 113 135
160 36 47 85 103 108 125 23 22 59 65 80 95 21 30 62 82 92 115 29 33 79 92
110 131 32 40 88 105 125 146 37 41 96 110 131 154 34 43 94 113 132 154 39
41 70 80 70 87 0 6 10 20 23 30 12 10 67 68 121 128 108 121 152 165 164 165
11 0 44 -26 112 -86 32 -29 71 -60 86 -70 34 -22 70 -52 139 -116 27 -25 76
-63 107 -85 31 -21 79 -59 107 -85 27 -27 52 -48 56 -48 11 0 79 -53 140 -110
33 -31 85 -72 115 -92 30 -20 68 -50 84 -67 47 -49 66 -38 66 39 0 22 7 61 16
87 9 26 20 93 24 148 4 55 15 118 23 140 10 23 16 71 17 116 0 49 7 97 20 134
13 38 20 84 20 134 0 51 7 96 20 134 13 37 20 82 20 130 0 51 5 79 17 96 11
16 18 56 23 127 4 65 11 109 20 119 10 12 16 51 18 119 2 67 10 119 23 154 12
33 19 79 19 123 0 44 7 90 20 126 11 32 20 84 20 118 1 33 9 85 20 115 13 36
19 82 20 133 0 48 6 92 16 115 9 20 19 84 23 142 4 58 13 116 20 129 8 13 16
63 18 110 3 47 13 112 24 144 12 36 19 85 19 135 0 52 7 96 20 135 13 35 20
82 20 125 0 39 7 89 16 113 9 24 20 94 24 154 5 61 16 130 25 154 8 24 15 70
15 103 0 39 6 68 17 85 13 20 18 48 18 119 0 73 4 96 18 111 9 11 17 25 17 31
0 22 -38 12 -60 -15z"/>
<path d="M27713 29459 c-6 -6 -20 -16 -31 -23 -142 -80 -172 -99 -177 -107 -4
-5 -14 -9 -23 -9 -9 0 -28 -9 -42 -20 -14 -11 -32 -20 -41 -20 -9 0 -24 -9
-34 -20 -10 -11 -28 -20 -39 -20 -12 0 -32 -9 -46 -20 -14 -11 -32 -20 -40
-20 -8 0 -26 -9 -40 -20 -14 -11 -32 -20 -41 -20 -9 0 -24 -9 -34 -20 -10 -11
-28 -20 -40 -20 -12 0 -30 -9 -40 -20 -10 -11 -28 -20 -40 -20 -13 0 -29 -7
-36 -17 -8 -9 -27 -22 -44 -30 -16 -8 -48 -25 -70 -38 -22 -13 -54 -31 -71
-39 -17 -7 -35 -19 -38 -25 -4 -6 -15 -11 -25 -11 -10 0 -26 -9 -36 -20 -10
-11 -28 -20 -40 -20 -12 0 -30 -9 -40 -20 -10 -11 -28 -20 -40 -20 -12 0 -30
-9 -39 -19 -10 -11 -60 -41 -112 -67 -52 -26 -99 -53 -105 -61 -6 -7 -19 -13
-29 -13 -9 0 -29 -9 -43 -20 -14 -11 -31 -20 -39 -20 -7 0 -24 -9 -38 -20 -14
-11 -32 -20 -41 -20 -9 0 -24 -9 -34 -20 -10 -11 -26 -20 -35 -20 -10 0 -29
-9 -43 -20 -14 -11 -30 -20 -36 -20 -6 0 -31 -14 -56 -32 l-45 -32 0 -1250 c0
-688 0 -2065 0 -3060 0 -1301 -3 -1821 -12 -1853 -8 -33 -8 -47 0 -55 16 -16
62 9 62 32 0 10 9 29 20 43 11 14 34 52 51 84 16 32 41 76 54 98 13 22 28 49
33 60 6 11 26 44 46 74 20 29 36 55 36 58 0 3 15 29 34 57 18 28 48 78 65 111
18 32 38 67 46 75 8 9 15 22 15 29 0 6 17 35 39 64 21 29 42 62 45 74 4 11 13
27 21 33 8 7 15 19 15 28 0 9 9 25 19 36 11 12 31 44 45 72 14 28 33 57 41 64
8 7 15 20 15 30 0 10 6 23 14 29 8 7 26 36 42 66 15 30 35 62 46 71 10 10 18
24 18 33 0 9 9 27 20 41 11 14 20 29 20 33 0 4 17 34 37 65 39 59 49 78 97
164 15 29 34 60 41 68 7 8 16 25 19 36 4 12 15 29 26 39 11 10 20 24 20 32 0
7 15 34 34 60 18 27 36 58 40 69 4 12 15 29 26 39 11 10 20 26 20 35 0 10 9
29 20 43 11 14 20 28 20 31 0 3 17 32 38 63 20 32 39 63 42 68 20 39 94 156
106 166 8 6 14 19 14 28 0 9 9 27 20 41 11 14 20 29 20 33 0 4 18 35 40 68 22
33 40 66 40 73 0 7 9 21 20 31 11 10 20 24 20 32 0 8 18 38 40 68 22 30 40 60
40 68 0 8 9 22 20 32 11 10 20 25 20 33 0 9 6 23 14 31 8 9 26 39 41 68 14 28
33 57 40 63 8 7 26 31 39 55 l26 43 0 2044 c0 1952 0 2043 -17 2046 -10 1 -23
-2 -30 -9z"/>
<path d="M30591 29194 c-12 -19 -21 -38 -21 -41 0 -3 -11 -21 -25 -39 -14 -18
-25 -35 -25 -38 0 -3 -16 -30 -35 -61 -20 -30 -51 -86 -70 -124 -20 -39 -40
-73 -45 -76 -6 -3 -10 -14 -10 -24 0 -10 -9 -26 -20 -36 -11 -10 -20 -26 -20
-35 0 -10 -7 -23 -16 -31 -9 -7 -28 -38 -44 -69 -16 -31 -35 -62 -44 -69 -9
-8 -16 -21 -16 -30 0 -9 -9 -27 -20 -41 -11 -14 -20 -31 -20 -39 0 -13 -58
-93 -72 -99 -5 -2 -8 -12 -8 -21 0 -10 -8 -25 -18 -35 -11 -9 -31 -41 -46 -71
-16 -30 -34 -59 -42 -66 -8 -6 -14 -20 -14 -30 0 -10 -4 -20 -9 -23 -5 -4 -26
-34 -45 -69 -20 -34 -50 -84 -66 -112 -17 -27 -33 -57 -36 -65 -3 -8 -10 -22
-15 -30 -5 -8 -22 -35 -37 -59 -15 -23 -44 -69 -64 -102 -21 -32 -38 -61 -38
-65 0 -4 -11 -22 -25 -40 -14 -18 -25 -39 -25 -47 0 -8 -9 -22 -20 -32 -11
-10 -20 -25 -20 -34 0 -9 -9 -27 -20 -41 -11 -14 -20 -28 -20 -32 0 -10 -59
-96 -71 -103 -5 -4 -9 -13 -9 -21 0 -7 -15 -35 -34 -61 -18 -27 -36 -58 -40
-69 -4 -12 -15 -29 -26 -39 -11 -10 -20 -26 -20 -35 0 -10 -9 -29 -20 -43 -11
-14 -20 -30 -20 -36 0 -6 -15 -32 -34 -58 -18 -27 -36 -58 -40 -69 -4 -12 -15
-29 -26 -39 -11 -10 -20 -24 -20 -31 0 -14 -55 -100 -71 -109 -5 -4 -9 -14 -9
-24 0 -10 -9 -26 -20 -36 -11 -10 -20 -26 -20 -35 0 -10 -6 -23 -14 -29 -8 -7
-26 -36 -40 -65 -14 -29 -35 -61 -46 -71 -11 -10 -20 -26 -20 -36 0 -10 -10
-30 -23 -46 -12 -15 -31 -45 -42 -66 -11 -21 -28 -45 -37 -54 -10 -9 -18 -26
-18 -38 0 -12 -9 -30 -20 -40 -11 -10 -20 -24 -20 -32 0 -7 -15 -34 -34 -60
-18 -27 -36 -58 -40 -69 -4 -12 -15 -29 -26 -39 -11 -10 -20 -24 -20 -32 0 -7
-15 -34 -34 -60 -18 -27 -36 -58 -40 -69 -4 -12 -15 -29 -26 -39 -11 -10 -20
-24 -20 -32 0 -7 -15 -34 -34 -60 -18 -27 -36 -58 -40 -69 -4 -12 -15 -29 -26
-39 -11 -10 -20 -25 -20 -33 0 -9 -9 -25 -19 -36 -11 -12 -31 -44 -45 -72 -14
-28 -33 -57 -41 -64 -8 -7 -15 -22 -15 -35 0 -12 -9 -30 -20 -40 -11 -10 -20
-23 -20 -29 0 -6 -18 -38 -40 -71 -22 -33 -40 -65 -40 -71 0 -6 -9 -19 -20
-29 -11 -10 -20 -24 -20 -32 0 -7 -15 -34 -34 -60 -18 -27 -36 -58 -40 -69 -4
-12 -15 -29 -26 -39 -11 -10 -20 -25 -20 -33 0 -9 -6 -23 -14 -31 -8 -9 -26
-38 -41 -66 -15 -27 -36 -59 -46 -71 -11 -11 -19 -24 -19 -30 0 -5 -18 -35
-40 -67 -22 -31 -40 -63 -40 -71 0 -7 -9 -21 -20 -31 -11 -10 -20 -26 -20 -35
0 -10 -7 -23 -16 -31 -9 -7 -28 -38 -44 -69 -16 -31 -35 -62 -44 -69 -9 -8
-16 -19 -16 -26 0 -7 -25 -52 -55 -101 -30 -49 -61 -100 -68 -114 -36 -63 -44
-78 -69 -117 -15 -23 -32 -44 -38 -48 -5 -3 -10 -13 -10 -21 0 -9 -11 -30 -24
-47 -13 -18 -36 -54 -50 -82 -15 -27 -38 -68 -51 -90 -13 -22 -27 -47 -31 -55
-4 -8 -25 -41 -46 -72 -21 -31 -38 -63 -38 -71 0 -8 -9 -22 -20 -32 -11 -10
-20 -24 -20 -31 0 -7 -27 -56 -60 -109 -33 -53 -60 -98 -60 -100 0 -8 -84
-141 -102 -161 -10 -11 -18 -26 -18 -34 0 -8 -9 -23 -19 -34 -11 -12 -31 -44
-45 -72 -14 -28 -33 -57 -41 -64 -8 -7 -15 -22 -15 -35 0 -12 -9 -30 -20 -40
-11 -10 -20 -24 -20 -32 0 -7 -15 -34 -34 -60 -18 -27 -36 -58 -40 -69 -4 -12
-15 -29 -26 -39 -11 -10 -20 -25 -20 -33 0 -9 -9 -25 -19 -36 -11 -12 -31 -44
-45 -72 -14 -28 -33 -57 -41 -64 -8 -7 -15 -19 -15 -28 0 -9 -9 -25 -19 -36
-11 -12 -31 -44 -45 -72 -14 -28 -33 -57 -41 -64 -8 -7 -15 -17 -15 -23 0 -5
-15 -33 -34 -61 -18 -28 -36 -61 -40 -72 -4 -12 -15 -29 -26 -39 -11 -10 -20
-24 -20 -31 0 -8 -16 -35 -35 -60 -20 -26 -42 -61 -50 -78 -8 -17 -20 -40 -27
-51 -7 -11 -29 -44 -49 -75 -19 -30 -38 -62 -42 -70 -4 -8 -18 -33 -32 -55
-13 -22 -34 -56 -45 -75 -11 -19 -26 -44 -33 -54 -44 -71 -77 -126 -77 -132 0
-4 -11 -22 -25 -40 -14 -18 -25 -39 -25 -47 0 -8 -9 -22 -20 -32 -11 -10 -20
-24 -20 -32 0 -7 -15 -34 -34 -60 -18 -27 -36 -58 -40 -69 -4 -12 -15 -29 -26
-39 -11 -10 -20 -24 -20 -32 0 -7 -15 -34 -34 -60 -18 -27 -36 -58 -40 -69 -4
-12 -15 -29 -26 -39 -11 -10 -20 -25 -20 -33 0 -9 -6 -23 -14 -31 -8 -9 -26
-38 -41 -66 -15 -27 -36 -59 -46 -71 -11 -11 -19 -26 -19 -32 0 -7 -15 -33
-34 -59 -18 -27 -36 -58 -40 -69 -4 -12 -15 -29 -26 -39 -11 -10 -20 -25 -20
-33 0 -9 -9 -25 -19 -36 -11 -12 -34 -48 -51 -81 -17 -33 -41 -78 -54 -100
-14 -22 -35 -60 -47 -84 -13 -24 -34 -53 -46 -65 -13 -11 -23 -28 -23 -37 0
-9 -9 -28 -20 -42 -11 -14 -20 -30 -20 -36 0 -6 -18 -34 -40 -63 -22 -29 -40
-60 -40 -69 0 -9 -7 -22 -15 -29 -8 -7 -21 -24 -28 -39 -44 -84 -81 -149 -98
-167 -10 -11 -19 -27 -19 -35 0 -8 -9 -25 -20 -39 -11 -14 -20 -28 -20 -32 0
-10 -63 -102 -72 -106 -4 -2 -8 -11 -8 -20 0 -9 -9 -28 -20 -42 -11 -14 -20
-29 -20 -33 0 -4 -18 -35 -40 -68 -22 -33 -40 -66 -40 -73 0 -7 -9 -21 -20
-31 -11 -10 -20 -24 -20 -32 0 -8 -18 -38 -40 -68 -22 -30 -40 -61 -40 -68 0
-8 -7 -21 -16 -28 -9 -7 -20 -22 -25 -34 -9 -21 -21 -41 -54 -90 -11 -16 -25
-39 -31 -50 -41 -75 -70 -124 -91 -151 -12 -17 -23 -38 -23 -46 0 -9 -7 -21
-16 -29 -8 -7 -25 -31 -36 -53 -11 -23 -31 -55 -44 -73 -13 -17 -24 -38 -24
-46 0 -8 -7 -21 -16 -28 -9 -7 -20 -22 -25 -34 -18 -37 -36 -66 -58 -89 -11
-12 -21 -29 -21 -38 0 -8 -9 -27 -20 -41 -11 -14 -20 -31 -20 -38 0 -6 -10
-26 -23 -43 -12 -17 -31 -48 -42 -69 -11 -21 -28 -45 -37 -54 -10 -9 -18 -24
-18 -33 0 -9 -9 -25 -20 -35 -11 -10 -20 -28 -20 -40 0 -12 -18 -42 -40 -66
-22 -24 -43 -54 -46 -66 -3 -12 -12 -24 -20 -27 -18 -7 -19 -56 0 -56 7 0 21
12 31 26 9 14 101 112 203 218 363 372 429 442 480 506 51 65 827 843 911 913
24 20 48 37 53 37 5 0 51 39 102 88 111 105 146 136 177 152 12 7 53 41 90 76
37 35 91 79 121 97 29 19 62 45 73 57 11 12 58 52 105 88 47 37 116 95 154
129 38 35 76 63 85 63 10 0 33 16 52 36 18 19 57 48 84 64 28 16 66 45 85 65
19 20 44 41 55 46 32 14 57 31 104 71 24 21 50 38 58 38 8 0 36 18 62 40 26
22 53 40 59 40 7 0 37 19 66 43 76 59 132 98 180 125 22 13 55 35 73 48 17 13
37 24 43 24 6 0 33 18 61 40 28 22 55 40 61 40 5 0 21 9 35 20 14 11 34 20 45
20 10 0 21 6 24 14 3 7 34 28 70 46 35 18 69 39 75 47 6 7 19 13 29 13 9 0 25
9 35 20 10 11 28 20 40 20 12 0 30 9 40 20 10 11 27 22 39 26 11 4 32 15 45
25 13 11 30 19 38 19 8 0 26 9 40 20 14 11 34 20 44 20 11 0 19 4 19 8 0 5 24
19 53 32 28 12 66 33 84 46 17 13 37 24 43 24 7 0 23 9 37 20 14 11 32 20 41
20 30 0 202 178 202 210 0 9 9 25 20 35 11 10 20 23 20 29 0 6 18 35 40 64 22
29 40 57 40 62 0 6 15 32 34 58 18 27 36 57 40 69 4 11 15 28 26 38 11 10 20
26 20 36 0 10 4 20 9 23 5 4 25 35 45 70 19 34 42 69 51 76 8 7 15 19 15 28 0
8 10 29 23 46 12 17 31 48 42 69 11 21 28 45 38 54 9 9 17 26 17 38 0 13 6 28
14 34 8 7 27 36 41 64 15 29 36 61 46 73 10 11 19 27 19 36 0 8 9 23 20 33 11
10 20 25 20 33 0 9 9 25 19 36 11 12 31 44 45 72 14 28 33 57 41 64 8 7 15 19
15 28 0 9 9 25 19 36 11 12 31 44 45 72 14 28 33 57 41 64 8 7 15 18 15 25 0
7 16 36 35 65 19 29 35 58 35 64 0 7 11 23 25 36 14 13 25 31 25 40 0 10 8 28
18 41 9 13 28 44 41 69 13 25 30 52 36 60 7 8 16 25 19 36 4 12 15 29 26 39
11 10 20 26 20 36 0 10 4 21 10 24 5 3 21 29 35 58 15 29 37 63 51 78 13 14
24 32 24 41 0 8 7 21 15 28 8 6 17 21 20 31 4 11 24 47 46 79 21 33 39 65 39
73 0 8 9 22 20 32 11 10 20 24 20 31 0 7 18 39 40 70 22 32 40 63 40 69 0 7 9
20 20 30 11 10 20 25 20 33 0 7 8 26 19 40 21 31 66 110 92 163 10 19 25 41
33 49 9 7 16 20 16 30 0 9 9 25 20 35 11 10 20 26 20 37 0 10 16 40 35 67 19
26 35 53 35 59 0 6 10 23 23 39 12 15 33 48 46 73 13 25 30 52 36 60 7 8 16
25 19 36 4 12 15 29 26 39 11 10 20 26 20 35 0 10 7 24 16 31 9 7 29 40 46 74
51 104 66 131 82 144 9 8 16 22 16 32 0 10 5 21 10 24 10 6 21 25 84 151 19
39 42 77 51 84 8 7 15 27 15 45 0 24 7 37 25 49 l26 17 -1 1907 c-1 1049 -3
1923 -6 1943 -6 34 -45 89 -63 89 -5 0 -18 -16 -30 -36z"/>
<path d="M33893 29010 c0 -25 2 -35 4 -22 2 12 2 32 0 45 -2 12 -4 2 -4 -23z"/>
<path d="M33894 28660 c0 -135 2 -190 3 -122 2 67 2 177 0 245 -1 67 -3 12 -3
-123z"/>
<path d="M33893 28200 c0 -30 2 -43 4 -27 2 15 2 39 0 55 -2 15 -4 2 -4 -28z"/>
<path d="M33892 27980 c0 -14 2 -19 5 -12 2 6 2 18 0 25 -3 6 -5 1 -5 -13z"/>
<path d="M33891 27484 c0 -11 3 -14 6 -6 3 7 2 16 -1 19 -3 4 -6 -2 -5 -13z"/>
<path d="M33892 27420 c0 -14 2 -19 5 -12 2 6 2 18 0 25 -3 6 -5 1 -5 -13z"/>
<path d="M30764 27056 c-7 -20 13 -81 32 -97 23 -19 29 -2 11 36 -9 20 -17 42
-17 50 0 20 -19 29 -26 11z"/>
<path d="M30840 26896 c0 -13 7 -29 15 -36 8 -7 15 -21 15 -31 0 -11 8 -27 19
-38 10 -10 21 -30 25 -45 3 -14 13 -26 21 -26 26 0 -4 77 -54 137 -6 6 -13 23
-17 37 -8 33 -24 34 -24 2z"/>
<path d="M33891 26714 c0 -11 3 -14 6 -6 3 7 2 16 -1 19 -3 4 -6 -2 -5 -13z"/>
<path d="M30950 26700 c0 -17 19 -50 29 -50 13 0 -3 53 -17 58 -7 2 -12 -2
-12 -8z"/>
<path d="M30995 26618 c10 -31 25 -47 25 -26 0 24 -11 48 -22 48 -5 0 -6 -10
-3 -22z"/>
<path d="M31034 26554 c3 -9 6 -22 6 -30 0 -8 7 -14 15 -14 18 0 18 2 3 35
-12 27 -34 36 -24 9z"/>
<path d="M31074 26468 c3 -13 6 -26 6 -30 0 -5 7 -8 15 -8 17 0 18 4 9 38 -4
12 -13 22 -21 22 -11 0 -14 -6 -9 -22z"/>
<path d="M31117 26414 c-8 -8 13 -64 24 -64 5 0 9 -9 9 -20 0 -11 9 -29 19
-39 10 -10 22 -33 26 -50 4 -17 11 -31 16 -31 5 0 15 -16 23 -35 8 -19 19 -35
24 -35 6 0 13 -16 16 -35 4 -19 11 -35 17 -35 5 0 14 -10 19 -22 5 -13 21 -41
35 -63 14 -22 32 -55 40 -73 9 -18 22 -35 30 -39 8 -3 15 -16 15 -29 0 -12 6
-27 14 -31 8 -4 21 -24 30 -43 21 -43 43 -82 81 -140 31 -48 56 -89 77 -130 7
-14 18 -29 25 -33 7 -4 13 -13 13 -19 0 -18 63 -108 72 -102 13 8 1 37 -38 97
-19 29 -37 62 -40 75 -4 12 -10 22 -14 22 -4 0 -13 14 -20 31 -7 17 -18 36
-24 43 -11 12 -28 40 -55 90 -9 17 -19 35 -24 40 -25 36 -57 88 -57 94 0 5
-20 41 -45 81 -25 40 -45 77 -45 81 0 5 -6 13 -12 17 -12 7 -24 27 -62 98 -6
11 -13 22 -16 25 -3 3 -12 19 -20 35 -8 17 -19 37 -26 45 -6 8 -26 42 -43 75
-18 33 -39 67 -47 76 -8 8 -14 21 -14 27 0 13 -15 24 -23 16z"/>
<path d="M33891 26275 c0 -11 -4 -31 -7 -45 -5 -19 -4 -22 5 -14 7 6 11 26 8
45 -2 19 -5 25 -6 14z"/>
<path d="M33700 25995 c0 -8 5 -15 10 -15 6 0 10 7 10 15 0 8 -4 15 -10 15 -5
0 -10 -7 -10 -15z"/>
<path d="M34272 25960 c-7 -11 -9 -20 -4 -20 4 0 13 9 20 20 7 11 9 20 4 20
-4 0 -13 -9 -20 -20z"/>
<path d="M33371 25834 c0 -11 3 -14 6 -6 3 7 2 16 -1 19 -3 4 -6 -2 -5 -13z"/>
<path d="M33410 25791 c0 -6 5 -13 10 -16 6 -3 10 1 10 9 0 9 -4 16 -10 16 -5
0 -10 -4 -10 -9z"/>
<path d="M34045 25690 c-3 -5 -1 -10 4 -10 6 0 11 5 11 10 0 6 -2 10 -4 10 -3
0 -8 -4 -11 -10z"/>
<path d="M33825 25434 l-16 -25 25 16 c26 17 34 35 17 35 -5 0 -16 -12 -26
-26z"/>
<path d="M31754 25308 c3 -18 13 -36 21 -41 8 -4 15 -17 15 -28 0 -10 9 -27
20 -36 11 -10 20 -25 20 -34 0 -9 7 -22 16 -29 8 -8 21 -28 29 -47 8 -18 19
-33 24 -33 6 0 11 -8 11 -19 0 -10 8 -29 19 -42 10 -13 31 -49 47 -79 15 -30
32 -58 36 -61 9 -6 36 -52 61 -105 8 -17 20 -35 26 -38 6 -4 11 -16 11 -26 0
-10 9 -25 20 -33 10 -7 25 -26 31 -43 12 -28 13 -28 17 -6 2 13 -4 32 -12 41
-9 10 -16 25 -16 33 0 9 -7 21 -16 28 -8 8 -22 27 -30 44 -8 17 -26 49 -39 71
-13 22 -31 56 -40 75 -9 19 -19 37 -23 40 -4 3 -13 16 -21 30 -20 34 -61 109
-78 143 -8 15 -18 27 -23 27 -4 0 -11 11 -14 24 -3 14 -12 31 -19 38 -15 17
-41 61 -62 106 -20 42 -40 42 -31 0z"/>
<path d="M30770 25110 c0 -5 5 -10 11 -10 5 0 7 5 4 10 -3 6 -8 10 -11 10 -2
0 -4 -4 -4 -10z"/>
<path d="M30860 24980 c0 -5 5 -10 11 -10 5 0 7 5 4 10 -3 6 -8 10 -11 10 -2
0 -4 -4 -4 -10z"/>
<path d="M33417 24943 c-4 -3 -7 -11 -7 -17 0 -6 5 -5 12 2 6 6 9 14 7 17 -3
3 -9 2 -12 -2z"/>
<path d="M30890 24915 c0 -8 4 -15 10 -15 5 0 7 7 4 15 -4 8 -8 15 -10 15 -2
0 -4 -7 -4 -15z"/>
<path d="M33360 24885 c0 -8 4 -15 9 -15 5 0 11 7 15 15 3 9 0 15 -9 15 -8 0
-15 -7 -15 -15z"/>
<path d="M30930 24841 c0 -6 5 -13 10 -16 6 -3 10 1 10 9 0 9 -4 16 -10 16 -5
0 -10 -4 -10 -9z"/>
<path d="M31011 24714 c0 -11 3 -14 6 -6 3 7 2 16 -1 19 -3 4 -6 -2 -5 -13z"/>
<path d="M33215 24700 c-3 -5 -1 -10 4 -10 6 0 11 5 11 10 0 6 -2 10 -4 10 -3
0 -8 -4 -11 -10z"/>
<path d="M33160 24645 c0 -8 5 -15 10 -15 6 0 10 7 10 15 0 8 -4 15 -10 15 -5
0 -10 -7 -10 -15z"/>
<path d="M31170 24436 c0 -9 5 -16 10 -16 6 0 10 4 10 9 0 6 -4 13 -10 16 -5
3 -10 -1 -10 -9z"/>
<path d="M32940 24374 c0 -8 5 -12 10 -9 6 3 10 10 10 16 0 5 -4 9 -10 9 -5 0
-10 -7 -10 -16z"/>
<path d="M32885 24331 c-6 -11 9 -23 19 -14 9 9 7 23 -3 23 -6 0 -12 -4 -16
-9z"/>
<path d="M31250 24305 c0 -8 4 -15 10 -15 5 0 7 7 4 15 -4 8 -8 15 -10 15 -2
0 -4 -7 -4 -15z"/>
<path d="M31287 24244 c-8 -8 1 -24 14 -24 5 0 9 7 9 15 0 15 -12 20 -23 9z"/>
<path d="M32775 24179 c-11 -17 1 -21 15 -4 8 9 8 15 2 15 -6 0 -14 -5 -17
-11z"/>
<path d="M31330 24155 c0 -8 5 -15 10 -15 6 0 10 7 10 15 0 8 -4 15 -10 15 -5
0 -10 -7 -10 -15z"/>
<path d="M32735 24139 c-4 -6 -5 -13 -2 -16 7 -7 27 6 27 18 0 12 -17 12 -25
-2z"/>
<path d="M32100 24109 c0 -5 5 -7 10 -4 6 3 10 8 10 11 0 2 -4 4 -10 4 -5 0
-10 -5 -10 -11z"/>
<path d="M32680 24085 c0 -8 5 -15 10 -15 6 0 10 7 10 15 0 8 -4 15 -10 15 -5
0 -10 -7 -10 -15z"/>
<path d="M31370 24075 c0 -8 5 -15 10 -15 6 0 10 7 10 15 0 8 -4 15 -10 15 -5
0 -10 -7 -10 -15z"/>
<path d="M31455 23967 c-4 -10 -5 -21 -1 -24 10 -10 18 4 13 24 -4 17 -4 17
-12 0z"/>
<path d="M31490 23912 c0 -12 19 -26 26 -19 2 2 -2 10 -11 17 -9 8 -15 8 -15
2z"/>
<path d="M31900 23874 c0 -8 5 -12 10 -9 6 3 10 10 10 16 0 5 -4 9 -10 9 -5 0
-10 -7 -10 -16z"/>
<path d="M32497 23863 c-10 -9 -9 -23 2 -23 5 0 11 7 15 15 5 15 -5 20 -17 8z"/>
<path d="M31526 23841 c-3 -5 1 -14 9 -21 12 -10 15 -10 15 3 0 19 -16 31 -24
18z"/>
<path d="M32445 23811 c-3 -5 -1 -12 4 -15 5 -3 11 1 15 9 6 16 -9 21 -19 6z"/>
<path d="M31570 23755 c0 -8 5 -15 10 -15 6 0 10 7 10 15 0 8 -4 15 -10 15 -5
0 -10 -7 -10 -15z"/>
<path d="M31612 23708 c2 -6 10 -14 16 -16 7 -2 10 2 6 12 -7 18 -28 22 -22 4z"/>
<path d="M32207 23533 c-4 -3 -7 -11 -7 -17 0 -6 5 -5 12 2 6 6 9 14 7 17 -3
3 -9 2 -12 -2z"/>
<path d="M31935 23220 c-3 -5 -1 -10 4 -10 6 0 11 5 11 10 0 6 -2 10 -4 10 -3
0 -8 -4 -11 -10z"/>
<path d="M31792 23080 c-7 -11 -9 -20 -4 -20 10 0 32 22 32 32 0 15 -15 8 -28
-12z"/>
<path d="M31737 23023 c-4 -3 -7 -11 -7 -17 0 -6 5 -5 12 2 6 6 9 14 7 17 -3
3 -9 2 -12 -2z"/>
<path d="M31695 22980 c-3 -5 -1 -10 4 -10 6 0 11 5 11 10 0 6 -2 10 -4 10 -3
0 -8 -4 -11 -10z"/>
<path d="M31637 22929 c-21 -12 -23 -41 -3 -33 13 5 30 33 24 40 -2 1 -11 -2
-21 -7z"/>
<path d="M31550 22840 c-6 -11 -8 -20 -5 -20 14 0 45 21 45 30 0 18 -29 10
-40 -10z"/>
<path d="M31415 22700 c-3 -5 -2 -10 4 -10 5 0 13 5 16 10 3 6 2 10 -4 10 -5
0 -13 -4 -16 -10z"/>
<path d="M31375 22660 c-3 -5 -1 -10 4 -10 6 0 11 5 11 10 0 6 -2 10 -4 10 -3
0 -8 -4 -11 -10z"/>
<path d="M30985 22310 c-3 -5 -1 -10 4 -10 6 0 11 5 11 10 0 6 -2 10 -4 10 -3
0 -8 -4 -11 -10z"/>
<path d="M30793 22163 c-18 -7 -16 -23 2 -23 8 0 15 7 15 15 0 8 -1 15 -2 14
-2 0 -9 -3 -15 -6z"/>
<path d="M30735 22100 c-3 -5 -1 -10 4 -10 6 0 11 5 11 10 0 6 -2 10 -4 10 -3
0 -8 -4 -11 -10z"/>
<path d="M30626 22033 c-11 -11 -6 -23 9 -23 8 0 15 4 15 9 0 13 -16 22 -24
14z"/>
<path d="M30570 21970 c0 -5 4 -10 9 -10 6 0 13 5 16 10 3 6 -1 10 -9 10 -9 0
-16 -4 -16 -10z"/>
<path d="M30468 21903 c7 -3 16 -2 19 1 4 3 -2 6 -13 5 -11 0 -14 -3 -6 -6z"/>
<path d="M30305 21790 c-3 -5 1 -10 10 -10 9 0 13 5 10 10 -3 6 -8 10 -10 10
-2 0 -7 -4 -10 -10z"/>
<path d="M30188 21703 c7 -3 16 -2 19 1 4 3 -2 6 -13 5 -11 0 -14 -3 -6 -6z"/>
<path d="M30110 21660 c0 -6 7 -10 15 -10 8 0 15 2 15 4 0 2 -7 6 -15 10 -8 3
-15 1 -15 -4z"/>
<path d="M29980 21579 c0 -5 5 -7 10 -4 6 3 10 8 10 11 0 2 -4 4 -10 4 -5 0
-10 -5 -10 -11z"/>
<path d="M33617 21463 c-4 -3 -7 -11 -7 -17 0 -6 5 -5 12 2 6 6 9 14 7 17 -3
3 -9 2 -12 -2z"/>
<path d="M29580 21339 c0 -5 5 -7 10 -4 6 3 10 8 10 11 0 2 -4 4 -10 4 -5 0
-10 -5 -10 -11z"/>
<path d="M33440 21245 c0 -8 4 -15 9 -15 5 0 11 7 15 15 3 9 0 15 -9 15 -8 0
-15 -7 -15 -15z"/>
<path d="M29138 21103 c7 -3 16 -2 19 1 4 3 -2 6 -13 5 -11 0 -14 -3 -6 -6z"/>
<path d="M33500 20780 c0 -5 5 -10 11 -10 5 0 7 5 4 10 -3 6 -8 10 -11 10 -2
0 -4 -4 -4 -10z"/>
<path d="M33530 20721 c0 -12 5 -21 10 -21 6 0 10 6 10 14 0 8 -4 18 -10 21
-5 3 -10 -3 -10 -14z"/>
<path d="M32910 20695 c-7 -8 -19 -15 -26 -15 -7 0 -37 -18 -66 -40 -29 -22
-57 -40 -61 -40 -5 0 -30 -18 -56 -40 -26 -22 -54 -40 -63 -40 -9 0 -21 -7
-28 -15 -6 -8 -32 -26 -57 -41 -26 -15 -69 -44 -97 -65 -28 -22 -54 -39 -58
-39 -4 0 -31 -18 -60 -40 -29 -22 -57 -40 -61 -40 -5 0 -30 -18 -56 -40 -26
-22 -53 -40 -60 -40 -7 0 -34 -18 -60 -40 -26 -22 -54 -40 -62 -40 -9 0 -26
-12 -40 -26 -25 -27 -196 -144 -210 -144 -5 0 -13 -9 -19 -20 -8 -16 -3 -28
30 -72 22 -29 40 -56 40 -60 0 -4 16 -29 35 -54 20 -26 42 -61 49 -79 8 -18
19 -36 25 -39 6 -4 11 -14 11 -23 0 -9 8 -26 19 -37 10 -12 31 -43 46 -71 15
-27 33 -57 41 -66 8 -8 14 -22 14 -29 0 -8 8 -23 19 -34 10 -12 31 -43 46 -71
15 -27 33 -57 41 -66 8 -8 14 -23 14 -31 0 -9 7 -21 15 -28 8 -7 27 -36 41
-64 14 -28 34 -60 45 -72 10 -11 19 -23 19 -27 0 -9 59 -95 71 -102 5 -4 9
-14 9 -23 0 -9 9 -28 20 -42 11 -14 20 -32 20 -41 0 -9 9 -24 20 -34 11 -10
22 -27 26 -39 4 -11 22 -42 40 -69 19 -26 34 -52 34 -58 0 -6 9 -22 20 -36 11
-14 20 -32 20 -40 0 -8 15 -33 34 -56 31 -39 44 -61 78 -127 7 -14 29 -51 50
-83 21 -32 38 -61 38 -65 0 -4 9 -18 20 -32 11 -14 20 -32 20 -41 0 -9 9 -24
20 -34 11 -10 22 -27 26 -39 4 -11 22 -42 40 -69 19 -26 34 -51 34 -57 0 -5
18 -33 40 -62 22 -29 40 -58 40 -64 0 -6 9 -19 20 -29 11 -10 20 -28 20 -40 0
-12 8 -29 18 -38 9 -9 26 -33 37 -54 11 -21 30 -52 42 -69 13 -17 23 -37 23
-44 0 -6 11 -25 25 -42 14 -16 25 -35 25 -41 0 -7 16 -32 35 -56 19 -24 35
-50 35 -57 0 -8 18 -37 40 -66 22 -29 40 -57 40 -63 0 -5 9 -21 20 -35 11 -14
20 -31 20 -39 0 -8 8 -24 18 -35 25 -29 102 -155 102 -168 0 -6 14 -26 30 -45
17 -19 40 -54 51 -79 12 -24 25 -47 30 -50 5 -3 9 -13 9 -23 0 -9 15 -31 33
-49 l33 -32 800 4 c441 2 806 6 813 10 16 11 14 21 -14 54 -14 17 -25 40 -25
51 0 12 -6 24 -14 27 -8 3 -22 20 -31 37 -9 18 -27 50 -40 72 -13 22 -28 49
-33 60 -6 12 -26 42 -46 68 -20 26 -36 53 -36 61 0 7 -7 19 -15 26 -8 7 -29
40 -46 74 -17 33 -37 68 -45 77 -8 8 -14 20 -14 25 0 5 -9 20 -20 34 -11 14
-20 33 -20 43 0 10 -7 20 -15 23 -8 4 -27 29 -41 58 -14 28 -34 60 -45 72 -10
11 -19 27 -19 35 0 8 -18 38 -40 67 -22 29 -40 58 -40 66 0 7 -9 21 -20 31
-11 10 -22 27 -26 39 -3 11 -12 28 -19 36 -7 8 -25 38 -40 67 -14 28 -33 57
-41 64 -8 6 -14 19 -14 29 0 10 -7 23 -16 31 -9 7 -28 38 -44 69 -16 31 -35
62 -44 69 -9 8 -16 23 -16 36 0 12 -9 30 -20 40 -11 10 -32 42 -46 71 -14 29
-32 58 -40 65 -8 6 -14 19 -14 29 0 9 -9 25 -20 35 -11 10 -22 27 -26 39 -3
11 -12 28 -19 36 -6 8 -23 35 -36 60 -13 25 -34 58 -46 73 -13 16 -23 33 -23
39 0 6 -16 33 -35 59 -19 27 -35 55 -35 62 0 8 -9 22 -20 32 -11 10 -20 26
-20 35 0 10 -7 23 -15 30 -8 7 -27 36 -41 64 -14 28 -34 60 -45 72 -10 11 -19
26 -19 33 0 6 -18 36 -40 66 -22 30 -40 60 -40 68 0 7 -11 24 -25 37 -14 13
-25 27 -25 32 0 5 -16 34 -35 64 -19 30 -35 60 -35 68 0 7 -9 21 -20 31 -11
10 -22 27 -26 39 -4 11 -22 42 -40 69 -19 26 -34 54 -34 62 0 9 -6 18 -14 21
-8 3 -20 20 -27 37 -7 18 -28 53 -46 79 -18 26 -33 54 -33 61 0 8 -9 22 -20
32 -11 10 -20 28 -20 40 0 12 -9 30 -20 40 -11 10 -32 42 -46 71 -14 29 -32
58 -40 65 -8 6 -14 19 -14 29 0 9 -9 25 -20 35 -11 10 -22 27 -26 39 -4 11
-22 42 -40 69 -19 26 -34 53 -34 60 0 8 -9 22 -20 32 -11 10 -22 27 -26 38 -4
12 -22 42 -40 69 -19 26 -34 54 -34 61 0 8 -9 22 -20 32 -11 10 -20 26 -20 36
0 10 -11 29 -25 43 -14 14 -25 33 -25 43 -1 28 -68 113 -89 113 -10 0 -24 -7
-31 -15z"/>
<path d="M33975 19980 c3 -5 8 -10 11 -10 2 0 4 5 4 10 0 6 -5 10 -11 10 -5 0
-7 -4 -4 -10z"/>
<path d="M34010 19916 c0 -9 5 -16 10 -16 6 0 10 4 10 9 0 6 -4 13 -10 16 -5
3 -10 -1 -10 -9z"/>
<path d="M34061 19844 c0 -11 3 -14 6 -6 3 7 2 16 -1 19 -3 4 -6 -2 -5 -13z"/>
<path d="M34090 19791 c0 -6 5 -13 10 -16 6 -3 10 1 10 9 0 9 -4 16 -10 16 -5
0 -10 -4 -10 -9z"/>
<path d="M34130 19715 c0 -8 5 -15 10 -15 6 0 10 7 10 15 0 8 -4 15 -10 15 -5
0 -10 -7 -10 -15z"/>
<path d="M34216 19587 c3 -10 9 -15 12 -12 3 3 0 11 -7 18 -10 9 -11 8 -5 -6z"/>
<path d="M34491 19114 c0 -11 3 -14 6 -6 3 7 2 16 -1 19 -3 4 -6 -2 -5 -13z"/>
<path d="M34530 19036 c0 -9 5 -16 10 -16 6 0 10 4 10 9 0 6 -4 13 -10 16 -5
3 -10 -1 -10 -9z"/>
<path d="M37325 18380 c3 -5 8 -10 11 -10 2 0 4 5 4 10 0 6 -5 10 -11 10 -5 0
-7 -4 -4 -10z"/>
<path d="M37580 17970 c0 -5 5 -10 10 -10 6 0 10 5 10 10 0 6 -4 10 -10 10 -5
0 -10 -4 -10 -10z"/>
<path d="M38301 16764 c0 -11 3 -14 6 -6 3 7 2 16 -1 19 -3 4 -6 -2 -5 -13z"/>
<path d="M38123 16653 c9 -2 25 -2 35 0 9 3 1 5 -18 5 -19 0 -27 -2 -17 -5z"/>
<path d="M38263 16653 c15 -2 39 -2 55 0 15 2 2 4 -28 4 -30 0 -43 -2 -27 -4z"/>
<path d="M28526 16498 c-3 -18 -24 -190 -46 -383 -22 -192 -42 -360 -44 -373
-5 -31 29 -52 97 -59 74 -8 90 4 111 79 43 154 134 293 236 358 89 57 157 73
315 72 146 0 305 -16 337 -33 33 -18 58 -84 69 -186 6 -65 9 -492 6 -1263 -3
-973 -6 -1174 -18 -1220 -14 -55 -14 -55 -89 -92 -65 -33 -134 -54 -232 -73
-23 -4 -28 -11 -34 -51 -3 -25 -2 -64 2 -87 11 -49 -26 -46 309 -26 303 18
640 17 904 -5 176 -14 216 -15 223 -4 4 7 7 47 6 88 -3 70 -4 75 -28 81 -105
29 -174 54 -230 81 -64 33 -65 34 -77 88 -30 134 -34 318 -30 1385 5 1258 3
1241 96 1279 63 24 164 37 316 39 153 1 216 -11 308 -61 109 -59 217 -214 268
-384 l20 -68 60 0 c33 0 74 6 92 14 31 12 33 16 29 52 -27 250 -91 776 -93
778 -2 2 -56 -8 -119 -21 -100 -21 -157 -25 -435 -33 -176 -5 -447 -14 -603
-19 -188 -7 -378 -7 -570 0 -158 5 -429 14 -602 19 -249 7 -336 13 -413 29
-55 11 -107 23 -117 26 -15 5 -20 -1 -24 -27z"/>
<path d="M23544 16481 c-23 -10 -53 -34 -66 -52 -14 -19 -285 -632 -602 -1364
-317 -731 -601 -1379 -631 -1440 -69 -140 -101 -178 -184 -219 -74 -38 -219
-86 -257 -86 -23 0 -24 -2 -24 -77 0 -43 4 -84 8 -91 9 -13 195 -6 502 19 115
9 173 7 394 -10 207 -17 261 -18 268 -9 11 19 10 156 -2 163 -6 4 -45 10 -88
15 -167 18 -282 91 -282 179 0 42 63 213 168 456 l108 250 109 8 c163 12 896
4 919 -9 20 -12 210 -460 265 -627 29 -87 32 -102 21 -128 -25 -59 -137 -111
-295 -136 l-50 -8 0 -82 c0 -45 3 -84 6 -87 3 -3 174 3 380 15 394 22 503 21
894 -7 110 -7 203 -14 207 -14 11 0 20 97 13 140 -6 36 -10 40 -43 45 -143 22
-261 67 -310 118 -24 24 -78 150 -230 527 -592 1472 -997 2467 -1011 2484 -39
46 -119 58 -187 27z m39 -1483 c153 -381 173 -439 162 -455 -12 -17 -35 -18
-317 -17 -317 1 -418 7 -418 27 0 22 385 896 391 889 4 -4 86 -204 182 -444z"/>
<path d="M25465 16426 c-4 -25 -4 -66 -1 -90 l7 -44 70 -16 c81 -18 204 -70
235 -98 49 -44 48 -26 52 -1318 3 -1137 -1 -1364 -24 -1424 -15 -39 -131 -84
-268 -105 -37 -5 -71 -13 -74 -16 -11 -10 -7 -154 4 -164 7 -8 121 -6 380 5
323 14 473 15 1213 5 465 -6 846 -10 847 -8 2 2 17 56 34 121 34 134 107 359
187 580 43 121 51 152 41 163 -16 15 -115 28 -160 19 -31 -6 -37 -14 -77 -94
-51 -105 -106 -182 -201 -278 -111 -114 -276 -187 -495 -220 -135 -21 -505
-15 -581 10 -66 21 -81 39 -101 122 -15 62 -17 185 -20 1189 -4 1094 0 1282
27 1378 10 34 19 42 73 67 34 16 98 39 142 50 44 12 91 25 105 29 24 6 25 10
25 88 0 45 -3 84 -6 87 -3 3 -138 -1 -300 -10 -254 -15 -339 -15 -624 -5 -181
6 -369 14 -417 18 l-86 6 -7 -47z"/>
<path d="M31715 16426 c-4 -25 -4 -66 -1 -90 l7 -44 70 -16 c85 -19 206 -70
237 -100 47 -45 51 -120 52 -851 0 -368 5 -733 10 -810 33 -469 157 -790 396
-1032 178 -180 403 -286 696 -329 142 -21 442 -15 558 11 370 82 629 281 799
615 84 164 123 292 158 513 13 84 17 240 23 892 7 823 7 820 50 905 54 104
193 174 392 195 l56 6 7 48 c4 28 2 67 -5 91 l-11 43 -72 -7 c-483 -42 -655
-44 -1032 -11 -93 8 -173 15 -177 15 -9 0 -10 -125 -2 -157 5 -16 16 -24 43
-29 156 -26 317 -89 360 -141 65 -79 71 -155 71 -956 0 -740 -6 -857 -51
-1035 -65 -260 -199 -433 -414 -537 -178 -86 -437 -104 -618 -44 -237 79 -414
296 -492 605 -43 166 -47 284 -42 1094 4 703 7 788 32 888 7 29 95 72 210 102
44 12 91 25 105 29 24 6 25 10 25 88 0 45 -3 84 -6 87 -3 3 -138 -1 -300 -11
-255 -14 -338 -15 -624 -4 -181 6 -369 14 -417 18 l-86 6 -7 -47z"/>
<path d="M35615 16460 c-11 -18 -16 -105 -7 -134 8 -28 12 -30 108 -46 108
-19 203 -44 246 -66 35 -18 52 -79 44 -154 -3 -30 -13 -325 -21 -655 -16 -648
-25 -867 -56 -1388 -24 -406 -31 -467 -57 -504 -44 -61 -237 -149 -402 -183
l-85 -17 0 -81 c0 -44 3 -83 6 -86 3 -4 78 -2 165 4 219 14 414 15 644 2 107
-7 277 -12 376 -12 l182 0 6 45 c4 25 4 65 1 90 l-7 44 -57 11 c-146 29 -384
123 -425 168 -10 12 -21 41 -23 66 -6 54 75 1989 85 2027 6 22 105 -193 552
-1198 428 -962 550 -1228 567 -1236 39 -18 102 8 158 66 56 58 4 -67 704 1677
131 327 243 596 249 598 27 9 39 -161 63 -878 11 -349 21 -736 22 -860 2 -222
2 -226 -23 -275 -22 -44 -34 -55 -105 -92 -44 -23 -102 -47 -130 -54 -97 -23
-95 -20 -95 -97 0 -103 1 -103 150 -92 219 16 492 30 592 30 102 0 550 -26
605 -35 39 -7 46 9 41 105 -3 62 -4 65 -33 73 -100 30 -183 64 -223 91 -44 29
-48 36 -70 111 -12 44 -29 134 -37 200 -15 117 -115 2137 -115 2313 0 71 4 96
23 132 28 56 96 95 192 110 39 6 75 16 80 21 13 13 13 145 0 158 -8 8 -106 6
-320 -5 -171 -9 -403 -14 -517 -12 l-206 3 -83 -280 c-106 -360 -170 -535
-521 -1422 -94 -238 -176 -433 -182 -433 -6 0 -31 51 -55 113 -56 142 -312
719 -561 1262 -185 405 -313 699 -326 752 -4 13 -12 27 -18 29 -7 3 -97 -2
-202 -11 -234 -19 -424 -19 -664 0 -223 17 -227 18 -235 5z"/>
</g>
</svg>
